<?xml version="1.0" encoding="UTF-8" standalone="no"?>
<!-- Created with Inkscape (http://www.inkscape.org/) -->

<svg
   xmlns:dc="http://purl.org/dc/elements/1.1/"
   xmlns:cc="http://creativecommons.org/ns#"
   xmlns:rdf="http://www.w3.org/1999/02/22-rdf-syntax-ns#"
   xmlns:svg="http://www.w3.org/2000/svg"
   xmlns="http://www.w3.org/2000/svg"
   xmlns:sodipodi="http://sodipodi.sourceforge.net/DTD/sodipodi-0.dtd"
   xmlns:inkscape="http://www.inkscape.org/namespaces/inkscape"
   width="67.605934mm"
   height="54.895298mm"
   viewBox="0 0 67.605934 54.895298"
   version="1.1"
   id="svg8"
   inkscape:version="0.92.3 (2405546, 2018-03-11)"
   sodipodi:docname="cart_svg.svg">
  <defs
     id="defs2" />
  <sodipodi:namedview
     id="base"
     pagecolor="#ffffff"
     bordercolor="#666666"
     borderopacity="1.0"
     inkscape:pageopacity="0.0"
     inkscape:pageshadow="2"
     inkscape:zoom="1.4"
     inkscape:cx="76.60246"
     inkscape:cy="168.13171"
     inkscape:document-units="mm"
     inkscape:current-layer="layer1"
     showgrid="false"
     inkscape:pagecheckerboard="true"
     fit-margin-top="0"
     fit-margin-left="0"
     fit-margin-right="0"
     fit-margin-bottom="0"
     inkscape:window-width="1366"
     inkscape:window-height="705"
     inkscape:window-x="-8"
     inkscape:window-y="-8"
     inkscape:window-maximized="1" />
  <metadata
     id="metadata5">
    <rdf:RDF>
      <cc:Work
         rdf:about="">
        <dc:format>image/svg+xml</dc:format>
        <dc:type
           rdf:resource="http://purl.org/dc/dcmitype/StillImage" />
        <dc:title></dc:title>
      </cc:Work>
    </rdf:RDF>
  </metadata>
  <g
     inkscape:label="1. réteg"
     inkscape:groupmode="layer"
     id="layer1"
     transform="translate(-1.7786964,-2.4277532)">
    <path
       style="fill:#ffffff;fill-opacity:1;stroke:none;stroke-width:0.08466667"
       d="m 26.044862,57.203307 c -1.6079,-0.348829 -2.691969,-0.94556 -3.782729,-2.08222 -0.900856,-0.938766 -1.381693,-1.718351 -1.777549,-2.88196 -0.593811,-1.745488 -0.449988,-4.004514 0.356472,-5.599073 0.592009,-1.17054 1.597695,-2.320575 2.604275,-2.978073 0.464573,-0.303459 0.630977,-0.457836 0.593212,-0.550333 -0.02887,-0.07071 -0.393479,-1.042962 -0.810241,-2.160562 -0.416762,-1.1176 -1.267922,-3.3655 -1.891465,-4.995333 C 20.713295,34.32592 20.05282,32.57332 19.869117,32.061086 19.685414,31.548853 19.030902,29.815303 18.414646,28.208753 17.798391,26.602203 17.094233,24.735303 16.84985,24.060086 16.605468,23.38487 15.88798,21.47987 15.255432,19.826753 14.622885,18.173636 13.821812,16.059087 13.47527,15.127753 13.128729,14.19642 12.447365,12.38667 11.961129,11.106087 11.474892,9.8255029 10.981909,8.5110529 10.865611,8.1850869 L 10.65416,7.5924199 7.1475603,7.5500899 c -3.338531,-0.04031 -3.525067,-0.05088 -3.891901,-0.220616 -0.5407414,-0.2502 -0.9842314,-0.665014 -1.2495624,-1.168766 -0.199909,-0.379541 -0.227038,-0.526913 -0.227396,-1.235288 -3.71e-4,-0.7329767 0.02178,-0.8443887 0.249694,-1.2558367 0.273192,-0.493189 0.559139,-0.768863 1.0947054,-1.055377 0.347498,-0.185902 0.362776,-0.186453 5.174528,-0.186453 h 4.8259997 l 0.435005,0.229448 c 0.85909,0.453137 1.068867,0.844924 2.347825,4.3848857 0.260774,0.721783 0.739205,1.998133 1.06318,2.836333 l 0.589046,1.5240001 25.045141,0.04233 25.045141,0.04233 0.458942,0.254 c 0.771484,0.426975 1.276725,1.313629 1.276725,2.240541 0,0.517977 -0.455847,2.096458 -2.287049,7.919458 -0.366104,1.164167 -0.880214,2.840567 -1.142465,3.725334 -0.262252,0.884766 -1.004829,3.304116 -1.650171,5.376333 -0.645342,2.072217 -1.346103,4.3526 -1.557247,5.067519 -0.524813,1.776987 -0.842266,2.234278 -1.872069,2.69673 -0.321506,0.144378 -1.163433,0.15321 -16.615835,0.174312 -8.952442,0.01223 -16.277168,0.05109 -16.277168,0.08637 0,0.03528 0.285751,0.805559 0.635001,1.711739 0.34925,0.906179 0.635,1.657135 0.635,1.668788 0,0.01166 6.391275,0.03181 14.202834,0.04479 l 14.202834,0.0236 0.629305,0.194327 c 3.134014,0.967769 5.061032,3.272809 5.418864,6.481879 0.318379,2.855244 -1.133375,5.751484 -3.612405,7.206726 -1.215996,0.713815 -2.538491,1.022346 -4.079207,0.951656 -2.15388,-0.09882 -3.860027,-0.95342 -5.28318,-2.646313 -0.640602,-0.762019 -1.034673,-1.473317 -1.351228,-2.438968 -0.385138,-1.174862 -0.423641,-3.073005 -0.09002,-4.437989 l 0.04656,-0.1905 h -7.405574 -7.405574 l 0.166451,0.6985 c 0.137435,0.576729 0.159852,0.905141 0.128588,1.883833 -0.03367,1.053972 -0.06804,1.274471 -0.310126,1.989667 -0.91037,2.689488 -2.884291,4.485095 -5.529722,5.030196 -0.791459,0.163083 -2.19334,0.164845 -2.93617,0.0037 z m 2.126129,-5.122416 c 0.788655,-0.219029 1.485335,-1.113073 1.563687,-2.006669 0.136685,-1.558869 -1.367898,-2.797399 -2.868404,-2.361191 -1.184641,0.344384 -1.899643,1.617405 -1.56158,2.780303 0.359485,1.236585 1.618722,1.93404 2.866297,1.587557 z M 57.36264,51.961195 c 1.301843,-0.656517 1.67574,-2.42333 0.750396,-3.545932 -0.645523,-0.783131 -1.870038,-1.011394 -2.78006,-0.518233 -0.838874,0.454603 -1.244528,1.220252 -1.166595,2.201882 0.07611,0.958675 0.658971,1.692214 1.58637,1.996469 0.333616,0.109451 1.283818,0.03025 1.609889,-0.134186 z M 34.63997,33.140586 c -0.02926,-0.314325 -0.112249,-1.4478 -0.184411,-2.518833 -0.175731,-2.608184 -0.259237,-3.59353 -0.308741,-3.643034 -0.02268,-0.02268 -2.442211,-0.03143 -5.376733,-0.01944 l -5.335495,0.0218 0.29492,0.762 c 0.162206,0.4191 0.553736,1.470384 0.870068,2.336187 0.316331,0.865802 0.755194,2.037377 0.975251,2.6035 l 0.400103,1.029313 h 4.359122 4.359122 z m 11.884916,0.550334 c 1.69e-4,-0.01164 0.114073,-1.449917 0.253183,-3.196167 0.13911,-1.74625 0.253295,-3.260725 0.253744,-3.3655 l 8.18e-4,-0.1905 h -5.122334 c -4.822393,0 -5.122268,0.0087 -5.121218,0.148167 5.93e-4,0.08149 0.114411,1.557866 0.252885,3.280833 0.138473,1.722967 0.252271,3.180292 0.252884,3.2385 8.8e-4,0.08336 0.981021,0.105833 4.615449,0.105833 2.537884,0 4.614449,-0.0095 4.614589,-0.02117 z m 11.765057,-0.592667 c 0.10036,-0.337608 0.561271,-1.826524 1.024247,-3.308702 0.462977,-1.482178 0.841775,-2.729953 0.841775,-2.772833 0,-0.04667 -2.100504,-0.07796 -5.232558,-0.07796 h -5.232559 l -0.234788,3.069167 c -0.129132,1.688041 -0.25585,3.212041 -0.281596,3.386666 l -0.04681,0.3175 h 4.489909 4.489908 z m -24.331937,-9.144 c -0.024,-0.151342 -0.166576,-1.884892 -0.316842,-3.852333 l -0.273213,-3.577167 h -6.925995 c -3.809297,0 -6.925994,0.03177 -6.925994,0.07059 0,0.03882 0.193544,0.562699 0.430097,1.164166 0.236553,0.601469 0.847556,2.217529 1.357784,3.591246 0.510228,1.373717 0.963568,2.583392 1.007422,2.688167 l 0.07973,0.1905 h 5.805318 5.80532 z m 13.329014,0.08467 c 4.24e-4,-0.22579 0.478203,-6.322872 0.550633,-7.027333 l 0.05005,-0.486834 h -5.941804 -5.941804 l 0.05492,0.656167 c 0.101716,1.215302 0.393687,5.22044 0.44748,6.138333 l 0.05334,0.910167 h 5.363397 5.363398 l 4.23e-4,-0.1905 z m 13.808362,-0.0635 c 0.03548,-0.116417 0.562529,-1.820805 1.171215,-3.78753 0.608686,-1.966723 1.106702,-3.595498 1.106702,-3.6195 0,-0.024 -2.8956,-0.04364 -6.434667,-0.04364 -3.539067,0 -6.43492,0.02858 -6.435229,0.0635 -3.38e-4,0.03493 -0.133619,1.75895 -0.296246,3.831167 -0.162627,2.072216 -0.295725,3.777466 -0.295772,3.789442 -4.8e-5,0.01198 2.501816,0.01198 5.559698,0 l 5.559786,-0.02178 z"
       id="path826"
       inkscape:connector-curvature="0" />
  </g>
</svg>
