<?xml version="1.0" encoding="UTF-8" standalone="no"?>
<!-- Created with Inkscape (http://www.inkscape.org/) -->

<svg
   xmlns:dc="http://purl.org/dc/elements/1.1/"
   xmlns:cc="http://creativecommons.org/ns#"
   xmlns:rdf="http://www.w3.org/1999/02/22-rdf-syntax-ns#"
   xmlns:svg="http://www.w3.org/2000/svg"
   xmlns="http://www.w3.org/2000/svg"
   xmlns:sodipodi="http://sodipodi.sourceforge.net/DTD/sodipodi-0.dtd"
   xmlns:inkscape="http://www.inkscape.org/namespaces/inkscape"
   width="273.57303mm"
   height="90.103851mm"
   viewBox="0 0 273.57303 90.10385"
   version="1.1"
   id="svg1973"
   inkscape:version="0.92.3 (2405546, 2018-03-11)"
   sodipodi:docname="turul_logo.svg">
  <defs
     id="defs1967" />
  <sodipodi:namedview
     id="base"
     pagecolor="#ffffff"
     bordercolor="#666666"
     borderopacity="1.0"
     inkscape:pageopacity="0.0"
     inkscape:pageshadow="2"
     inkscape:zoom="0.49497475"
     inkscape:cx="389.91755"
     inkscape:cy="330.51594"
     inkscape:document-units="mm"
     inkscape:current-layer="layer1"
     showgrid="false"
     borderlayer="true"
     inkscape:pagecheckerboard="true"
     fit-margin-top="0"
     fit-margin-left="0"
     fit-margin-right="0"
     fit-margin-bottom="0"
     inkscape:window-width="1366"
     inkscape:window-height="705"
     inkscape:window-x="-8"
     inkscape:window-y="-8"
     inkscape:window-maximized="1" />
  <metadata
     id="metadata1970">
    <rdf:RDF>
      <cc:Work
         rdf:about="">
        <dc:format>image/svg+xml</dc:format>
        <dc:type
           rdf:resource="http://purl.org/dc/dcmitype/StillImage" />
        <dc:title></dc:title>
      </cc:Work>
    </rdf:RDF>
  </metadata>
  <g
     inkscape:groupmode="layer"
     id="layer2"
     inkscape:label="körvonal2"
     sodipodi:insensitive="true"
     transform="translate(-2.3528241,-2.5045452)">
    <g
       transform="matrix(0.7342886,0,0,0.6794908,-20.405338,-166.72014)"
       id="layer1-9-4"
       inkscape:label="1. réteg"
       style="fill:#ed1c24;fill-opacity:1;stroke:#000000;stroke-width:4.38870621;stroke-miterlimit:4;stroke-dasharray:none;stroke-opacity:1">
      <path
         inkscape:connector-curvature="0"
         id="path1390-2"
         d="m 111.81951,378.97208 c -1.13451,-0.53607 -1.34559,-0.76383 -1.90651,-2.05722 -0.72905,-1.68103 -1.1606,-1.98281 -2.83547,-1.98281 -1.44601,0 -2.02354,-0.49025 -2.06727,-1.75484 -0.0161,-0.46647 -0.10058,-1.18281 -0.18767,-1.59185 l -0.15833,-0.7437 -3.34495,-0.14939 c -1.839721,-0.0822 -3.645858,-0.23222 -4.013631,-0.33347 -0.925656,-0.25485 -1.458226,-1.17941 -1.705196,-2.96029 -0.34873,-2.51465 -0.644227,-3.44077 -1.055819,-3.30901 -0.274527,0.0879 -1.022126,1.1588 -2.396016,3.43224 -0.812723,1.34485 -1.53717,1.83203 -2.198203,1.47826 -0.272869,-0.14604 -1.21129,-0.26552 -2.085371,-0.26552 -1.782864,0 -2.233683,0.29866 -2.525856,1.67335 -0.184625,0.86867 -0.153913,0.85753 -2.486918,0.90156 -1.262472,0.0238 -1.722907,0.17209 -3.044605,0.98039 -1.508216,0.92237 -2.526977,1.24411 -2.94882,0.93129 -0.112278,-0.0833 -0.441011,-0.59244 -0.73052,-1.13151 -0.289508,-0.53907 -0.761725,-1.13639 -1.049369,-1.32738 -0.480076,-0.31876 -0.557263,-0.28754 -0.940647,0.38047 -0.495895,0.86405 -1.936903,1.8676 -2.52238,1.75665 -0.242223,-0.0459 -0.447749,-0.36169 -0.493524,-0.75828 -0.04314,-0.37379 -0.210477,-0.68982 -0.371854,-0.70229 -0.161378,-0.0125 -0.723323,-0.0439 -1.248771,-0.0698 -0.947468,-0.0467 -1.64762,-0.60698 -1.64762,-1.31835 0,-0.38009 -0.891083,-0.43978 -1.116653,-0.0748 -0.08486,0.13732 -0.493279,0.42497 -0.907587,0.63922 -0.708252,0.36624 -0.785717,0.35906 -1.295853,-0.12019 -0.451625,-0.42428 -0.748652,-0.48549 -1.771999,-0.36519 -1.445748,0.16994 -3.748678,-0.40547 -5.09584,-1.27326 -0.733589,-0.47255 -0.987877,-0.87469 -1.434997,-2.26933 -0.298878,-0.93225 -0.511225,-1.97073 -0.471883,-2.30772 0.05911,-0.50633 -0.07911,-0.66206 -0.796126,-0.89697 -1.27631,-0.41816 -1.905078,-1.87973 -1.138454,-2.64636 0.316495,-0.31649 1.599413,-2.30861 2.276522,-3.53498 0.487278,-0.88256 3.119613,-2.50718 8.378538,-5.17109 2.845856,-1.44157 5.777282,-3.0763 6.514279,-3.63274 0.736998,-0.55644 2.029937,-1.338 2.873193,-1.7368 0.856069,-0.40486 2.165979,-1.33607 2.965984,-2.10851 1.375343,-1.32796 1.432787,-1.43388 1.432787,-2.64214 0,-1.43477 -0.827348,-4.46181 -1.334541,-4.88274 -0.268342,-0.22271 -0.712281,0.0845 -2.128495,1.47288 -1.435138,1.40695 -1.918694,1.7392 -2.442284,1.67809 -0.520784,-0.0608 -0.73652,-0.30186 -1.066453,-1.19176 -0.456428,-1.23107 -0.458288,-1.23159 -3.088572,-0.86981 -1.162917,0.15995 -1.365463,0.10569 -2.633676,-0.70558 -0.755633,-0.48337 -1.439482,-1.04983 -1.519668,-1.25879 -0.104437,-0.27216 -0.350852,-0.33892 -0.868651,-0.23536 -0.984469,0.19689 -1.6791,-0.23127 -1.862441,-1.14797 -0.127057,-0.63529 -0.394443,-0.87692 -1.582139,-1.42978 -1.20606,-0.56139 -1.874425,-0.68533 -4.280124,-0.79371 -3.230638,-0.14553 -3.848588,-0.42721 -4.965324,-2.26342 -0.391251,-0.64331 -1.029176,-1.22025 -1.766087,-1.59724 -0.730606,-0.37375 -1.975953,-1.49523 -3.396326,-3.05851 -1.886732,-2.07656 -2.309022,-2.69758 -2.660414,-3.91242 -0.229732,-0.79424 -0.918048,-2.6154 -1.529594,-4.04704 -0.611544,-1.43164 -1.168599,-3.01878 -1.2379,-3.527 -0.109501,-0.80302 -0.02444,-1.01313 0.649597,-1.60459 1.165821,-1.023 1.027175,-1.61106 -0.797334,-3.38185 -1.263132,-1.22594 -1.849045,-2.07989 -2.974832,-4.33574 -0.771047,-1.54502 -1.401903,-3.04312 -1.401903,-3.3291 0,-0.28599 -0.250282,-1.29707 -0.556184,-2.24687 -0.546856,-1.69793 -0.54814,-1.73148 -0.07655,-2.0008 0.791662,-0.45211 1.667081,-1.38521 1.570738,-1.67423 -0.04962,-0.14888 -0.584237,-0.54816 -1.188029,-0.88731 -0.603791,-0.33914 -1.23725,-0.79983 -1.407685,-1.02377 -0.558825,-0.73422 -0.64485,-1.905 -0.202784,-2.75986 0.291724,-0.56413 0.400508,-1.32574 0.367247,-2.57111 -0.02599,-0.97325 -0.03531,-1.89133 -0.02073,-2.04018 0.0146,-0.14886 0.472768,-0.40434 1.018154,-0.56774 0.866615,-0.25964 0.991611,-0.38958 0.991611,-1.03085 1e-5,-0.40356 -0.111547,-0.73376 -0.247893,-0.73376 -0.136346,0 -0.247903,-0.22311 -0.247903,-0.49581 0,-0.38155 0.16527,-0.4958 0.717185,-0.4958 0.816465,0 1.000042,-0.29962 0.841028,-1.37264 -0.07501,-0.50618 -0.389208,-0.94312 -0.958844,-1.33345 -0.465999,-0.3193 -0.847271,-0.73351 -0.847271,-0.92045 0,-0.18695 -0.223113,-0.56301 -0.495806,-0.83571 -0.635885,-0.63588 -0.627793,-1.25276 0.02736,-2.08564 0.518126,-0.65869 0.518942,-0.68135 0.08474,-2.35544 -0.527616,-2.03425 -0.405189,-2.48731 0.685808,-2.53795 0.447405,-0.0207 0.925019,-0.0637 1.061366,-0.0954 0.136346,-0.0317 0.379831,-0.0705 0.541075,-0.0862 0.828438,-0.0808 0.565936,-1.65387 -0.45982,-2.75552 -0.819316,-0.87994 -1.547743,-2.34879 -1.380692,-2.78412 0.29996,-0.78169 1.130235,-0.6501 2.794287,0.44285 1.291251,0.8481 1.774443,1.34658 2.270789,2.34261 0.578054,1.16 0.695134,1.25898 1.407267,1.18974 0.690014,-0.0671 0.770912,-0.15627 0.72442,-0.79864 -0.02878,-0.39772 -0.154701,-0.78816 -0.27981,-0.86766 -0.324517,-0.2062 -1.775025,-3.69694 -1.775025,-4.27171 0,-0.26437 0.276516,-0.77888 0.614476,-1.14335 l 0.614477,-0.66269 0.853556,0.8273 c 0.469453,0.45501 0.920192,1.09281 1.00164,1.41732 0.323905,1.29054 1.938297,3.83311 2.676058,4.21462 l 0.748361,0.38699 -0.175158,-1.20022 c -0.09634,-0.66012 -0.436061,-1.98111 -0.754946,-2.93553 -0.318884,-0.95443 -0.656473,-2.12577 -0.7502,-2.60298 -0.09372,-0.47721 -0.309413,-1.20233 -0.479303,-1.61137 -0.925936,-2.22934 -1.348814,-5.07912 -1.013391,-6.82929 0.210102,-1.09626 0.360027,-1.36589 0.793879,-1.42771 0.682748,-0.0973 1.414307,0.68484 1.885106,2.01541 0.950697,2.68685 1.918331,5.91202 1.918331,6.39388 0,0.88933 1.181362,5.11242 1.482145,5.29831 0.108227,0.0669 0.445034,0.82484 0.748462,1.68433 0.567641,1.60791 1.1366,2.59539 1.364239,2.36775 0.145476,-0.14548 0.145139,-0.40582 -0.0081,-6.27995 -0.07757,-2.97282 -10e-4,-4.94465 0.259586,-6.69337 0.20325,-1.36346 0.428136,-2.86947 0.499742,-3.34668 0.248815,-1.65821 0.354357,-1.89423 1.00209,-2.24088 0.580786,-0.31083 0.68609,-0.30111 0.971831,0.0897 0.28391,0.38827 0.399926,0.89173 0.781366,3.39073 0.05203,0.34087 0.156375,2.96243 0.231881,5.82571 0.136723,5.18474 0.584745,9.58188 1.114508,10.9384 0.153154,0.39216 0.333975,1.04641 0.401819,1.45387 0.324762,1.95042 1.378645,2.68176 2.15565,1.4959 0.338282,-0.51628 0.383225,-1.15385 0.28207,-4.00156 -0.06618,-1.86309 -0.01088,-4.34775 0.122901,-5.52146 0.133776,-1.17371 0.307359,-2.69181 0.385746,-3.37354 0.07839,-0.68173 0.207758,-1.40685 0.287488,-1.61137 0.07973,-0.20452 0.154602,-0.47136 0.166377,-0.593 0.01178,-0.12163 0.33216,-0.45315 0.711962,-0.73672 l 0.69055,-0.51557 0.6002,0.73672 c 0.584309,0.71722 0.600903,0.85813 0.626933,5.32292 0.03042,5.21792 0.07185,5.8937 0.596933,9.7352 0.209281,1.53114 0.371053,4.06974 0.359488,5.64132 -0.0218,2.96208 0.452169,6.68682 0.850884,6.68682 0.125654,0 0.175792,0.27551 0.111419,0.61226 -0.06437,0.33674 -0.02159,0.55327 0.09505,0.48117 0.116651,-0.0721 0.21209,-0.006 0.21209,0.14609 0,0.15244 0.08965,0.22175 0.199228,0.15403 0.109575,-0.0677 0.580479,0.51136 1.046451,1.28686 l 0.847225,1.40998 0.178775,-0.9916 c 0.09833,-0.54539 0.185203,-1.35417 0.193062,-1.7973 0.01185,-0.66854 0.109236,-0.8043 0.572067,-0.79755 1.248416,0.0182 3.296704,3.40884 3.928175,6.50252 0.377689,1.85038 1.86536,6.23188 2.736344,8.05912 0.598776,1.25618 1.119238,1.86769 2.709098,3.18301 1.082362,0.89546 1.967932,1.72005 1.967932,1.83242 0,0.30578 2.952346,2.58613 4.101921,3.16827 0.551726,0.27939 1.444179,0.58151 1.983215,0.67138 1.708432,0.28483 2.297257,0.63929 3.326386,2.00235 1.276723,1.69102 1.957014,2.31614 3.653595,3.35735 0.752634,0.4619 2.049589,1.42302 2.882127,2.13583 1.608089,1.37684 2.619612,1.87726 3.141996,1.5544 0.258331,-0.15965 0.24133,-0.51063 -0.08831,-1.82292 -0.686583,-2.73332 -0.537532,-3.70262 0.883039,-5.7425 0.662599,-0.95144 1.421709,-3.65734 1.431349,-5.10214 0.009,-1.38547 0.50223,-2.16001 1.86397,-2.92853 0.7282,-0.41096 1.37884,-0.94645 1.44584,-1.18995 0.067,-0.24351 0.25434,-1.02875 0.4163,-1.74499 0.16195,-0.71624 0.3948,-1.36427 0.51745,-1.44007 0.30446,-0.18816 0.27979,-1.16717 -0.0724,-2.87214 -0.23808,-1.15269 -0.23165,-1.54899 0.0332,-2.04377 0.4009,-0.74909 1.54804,-1.26157 2.30569,-1.03007 0.30772,0.094 0.92738,0.22202 1.37702,0.28441 l 0.81753,0.11345 -0.16882,-2.45113 c -0.18655,-2.70854 -0.15044,-2.78883 1.31325,-2.92017 1.10571,-0.0992 2.4565,-0.57205 3.56843,-1.24909 0.93652,-0.57023 1.20419,-1.30742 1.21039,-3.33356 0.003,-1.11718 0.55086,-1.63499 1.96816,-1.86163 1.19414,-0.19095 2.00101,-0.82573 2.00101,-1.57422 0,-0.52879 0.98339,-0.82002 2.35508,-0.69745 0.63831,0.0571 0.80691,-0.0629 1.18975,-0.84602 0.42972,-0.87907 0.47511,-0.90275 1.23952,-0.64663 0.96053,0.32183 1.66112,0.89472 1.66112,1.35835 0,0.26988 0.10908,0.28378 0.51638,0.0658 0.49435,-0.26457 0.50895,-0.40068 0.34239,-3.19128 -0.20806,-3.48593 -0.0921,-4.03103 0.83318,-3.91751 0.52093,0.0639 0.79602,0.3555 1.28288,1.35976 1.08211,2.2321 1.15683,2.14021 1.30157,-1.60067 0.14378,-3.71611 0.24135,-4.18257 0.91149,-4.35782 0.63206,-0.16529 1.17709,0.20845 1.35858,0.9316 0.086,0.34261 0.26291,0.62292 0.39316,0.62292 0.41268,0 0.97809,1.39522 1.14666,2.82953 0.0895,0.76165 0.23243,1.38482 0.31757,1.38482 0.0851,0 0.48792,-0.96099 0.89506,-2.13552 0.90616,-2.61413 1.86815,-3.6377 3.30618,-3.5178 0.85301,0.0711 0.91009,0.1299 0.98296,1.01224 0.0794,0.96138 -0.57056,4.41365 -1.4105,7.49196 -0.49564,1.81644 -1.41842,3.94461 -2.25735,5.20595 -0.27205,0.40905 -0.63083,1.0226 -0.79729,1.36347 -0.16644,0.34086 -0.5023,0.8858 -0.74633,1.21097 -0.58791,0.78336 -0.56464,1.6817 0.0521,2.01177 1.33302,0.7134 -0.12941,3.50314 -2.60297,4.96543 -0.54539,0.32242 -1.04739,0.66077 -1.11557,0.75192 -0.0682,0.0911 -0.57017,0.40498 -1.11555,0.69741 -0.54539,0.29244 -1.21472,0.65969 -1.48742,0.81611 -0.27269,0.15642 -0.61856,0.35047 -0.7686,0.43123 -1.27837,0.68809 -2.47082,1.73036 -3.4842,3.0454 -1.87704,2.43577 -2.1358,2.87464 -3.401,5.76818 -1.16282,2.65935 -1.18806,2.77065 -1.18806,5.23823 0,2.33739 -0.0627,2.66336 -0.86053,4.4721 -1.32762,3.0099 -2.07299,5.05256 -2.07299,5.681 0,0.67639 0.90475,1.45154 2.18464,1.87173 2.54875,0.83675 4.61066,2.54134 6.5139,5.38508 l 1.27435,1.90407 -0.18896,1.61136 c -0.19303,1.64628 -0.20393,2.90724 -0.0687,7.94924 0.0744,2.77415 0.0548,2.90075 -0.60528,3.89986 -0.86652,1.31163 -1.80468,1.61116 -2.47059,0.78881 -0.25637,-0.31662 -0.44832,-0.80754 -0.42654,-1.09095 0.0218,-0.28341 0.0273,-0.69801 0.0122,-0.92133 -0.0322,-0.47569 -3.51305,-4.18016 -3.92789,-4.18016 -0.15521,0 -1.19945,0.35904 -2.32055,0.79787 -3.61102,1.41346 -5.7238,3.9613 -5.32953,6.42696 0.2469,1.544 0.7191,2.1548 3.08418,3.98941 1.89391,1.46912 3.31955,2.79226 3.00857,2.79226 -0.18068,0 0.77526,4.92587 1.07903,5.56016 0.1586,0.33116 0.62302,0.69593 1.03206,0.8106 0.40904,0.11468 3.05987,0.2046 5.89072,0.19985 5.62269,-0.009 5.5904,-0.0164 7.3101,1.57951 1.0221,0.94853 1.0381,1.72187 0.0777,3.75463 -1.17039,2.47716 -1.89602,2.23245 -1.77094,-0.59723 0.0571,-1.29097 0.0397,-1.33002 -0.5183,-1.17083 -0.31752,0.0906 -1.33201,0.23376 -2.25439,0.31819 l -1.67708,0.15352 0.1508,1.14127 c 0.13461,1.01876 0.0685,1.24472 -0.61603,2.10499 -0.42175,0.53005 -0.76683,0.87895 -0.76683,0.77533 0,-0.10361 -0.1783,-0.0404 -0.39622,0.14045 -0.34638,0.28747 -0.38734,0.2523 -0.32561,-0.27953 0.1072,-0.92364 -0.24865,-1.77507 -1.05723,-2.52961 -0.81691,-0.7623 -1.36708,-0.84966 -2.07802,-0.32996 -0.41129,0.30066 -0.48121,0.65925 -0.48121,2.4679 0,2.71622 0.23333,2.95797 2.68471,2.78156 1.5659,-0.11268 1.66834,-0.0902 1.36347,0.29923 -0.5061,0.64647 -0.99964,1.01654 -1.86447,1.39805 -1.08943,0.4806 -2.24185,0.0935 -3.66375,-1.23062 -1.5415,-1.43551 -1.83171,-2.21464 -1.52215,-4.08647 0.31173,-1.88487 0.15163,-2.05423 -2.32772,-2.46235 -2.7957,-0.46018 -4.66344,-0.97493 -5.25769,-1.44899 -0.29311,-0.23384 -1.26595,-1.12711 -2.16185,-1.98507 -1.50765,-1.4438 -1.70272,-1.55452 -2.62051,-1.48741 -0.91489,0.0669 -0.99752,0.13349 -1.068,0.8608 -0.0687,0.70905 1.14714,4.18806 1.7266,4.94047 0.46156,0.59932 0.93137,2.75159 0.977,4.47586 0.0288,1.08772 0.17146,1.92035 0.35515,2.0728 0.31934,0.26503 2.16016,0.83137 4.08286,1.25613 0.61356,0.13555 1.85934,0.24698 2.76841,0.24763 1.74598,0.001 2.03901,0.15858 2.3106,1.2407 0.12041,0.47971 0.39005,0.69744 1.07288,0.86627 0.81953,0.20263 0.97161,0.37578 1.49904,1.70667 0.32284,0.81464 0.64323,2.10145 0.71197,2.85957 0.11849,1.30675 0.0905,1.39412 -0.53786,1.68044 -0.36458,0.16611 -1.15066,0.36057 -1.74687,0.43214 l -1.08402,0.13013 0.2447,-0.88623 c 0.13458,-0.48742 0.21013,-1.23863 0.16788,-1.66933 -0.0743,-0.75756 -0.11726,-0.7845 -1.31634,-0.82574 -0.68173,-0.0234 -1.82518,-0.21762 -2.541,-0.43149 -0.71582,-0.21387 -1.30149,-0.30318 -1.30149,-0.19847 0,0.4089 0.84506,2.66661 1.21778,3.25353 0.21648,0.34087 0.72523,0.92654 1.13057,1.30149 0.40533,0.37495 0.68423,0.68886 0.61976,0.69756 -1.19494,0.16132 -1.81144,0.0676 -2.88155,-0.43804 z"
         style="fill:#ed1c24;fill-opacity:1;stroke:#000000;stroke-width:4.38870621;stroke-miterlimit:4;stroke-dasharray:none;stroke-opacity:1" />
    </g>
    <text
       xml:space="preserve"
       style="font-style:normal;font-variant:normal;font-weight:normal;font-stretch:normal;font-size:41.46721268px;line-height:1.25;font-family:'ROG Fonts';-inkscape-font-specification:'ROG Fonts';letter-spacing:0px;word-spacing:0px;fill:#ed1c24;fill-opacity:1;stroke:#141414;stroke-width:3.0999999;stroke-miterlimit:4;stroke-dasharray:none;stroke-opacity:1"
       x="103.33398"
       y="46.807457"
       id="text2536-3"
       transform="scale(0.97741506,1.0231068)"><tspan
         sodipodi:role="line"
         id="tspan2534-5"
         x="103.33398"
         y="46.807457"
         style="font-style:normal;font-variant:normal;font-weight:normal;font-stretch:normal;font-size:41.46721268px;font-family:'ROG Fonts';-inkscape-font-specification:'ROG Fonts';fill:#ed1c24;fill-opacity:1;stroke:#141414;stroke-width:3.0999999;stroke-miterlimit:4;stroke-dasharray:none;stroke-opacity:1">TURUL</tspan></text>
  </g>
  <g
     inkscape:label="1. réteg"
     inkscape:groupmode="layer"
     id="layer1"
     transform="translate(-5.0725351,-101.34899)">
    <g
       transform="matrix(0.88638329,0,0,0.88871596,93.814227,10.456744)"
       id="layer1-5"
       inkscape:label="1. réteg"
       style="stroke:none;stroke-width:0.67601913;stroke-miterlimit:4;stroke-dasharray:none;stroke-opacity:1">
      <path
         inkscape:connector-curvature="0"
         id="path1965"
         d="m 15.634766,187.95575 c 0.01175,-0.0689 1.770654,-6.32877 3.908686,-13.91076 l 3.887331,-13.78544 1.582748,-0.15539 c 1.519541,-0.14918 1.612533,-0.0491 2.328618,2.50644 1.302485,4.64826 6.31766,24.484 6.31766,24.98726 0,0.26577 -0.67674,0.48321 -1.503867,0.48321 -1.154432,0 -1.503866,-0.22608 -1.503866,-0.97299 0,-1.48942 -0.855783,-1.68528 -1.209299,-0.27676 -0.249633,0.99461 -0.629686,1.24975 -1.861617,1.24975 -1.027326,0 -1.470281,-0.21074 -1.317022,-0.62661 2.257784,-6.12643 2.511614,-7.53127 1.869397,-10.34631 l -0.641643,-2.81252 -1.800635,6.89272 c -1.764175,6.75316 -1.828607,6.89272 -3.182151,6.89272 -0.759835,0 -1.381518,-0.19462 -1.381518,-0.4325 0,-0.23787 1.1279,-4.17222 2.506444,-8.743 2.707402,-8.97681 2.773342,-9.39279 1.836792,-11.58722 -0.593831,-1.3914 -0.739593,-1.04747 -2.9743,7.01804 -4.058738,14.64881 -3.703614,13.74468 -5.398667,13.74468 -0.816445,0 -1.474836,-0.0564 -1.463091,-0.12532 z m 31.559841,-7.64465 v -7.76998 h -5.263532 -5.263533 l 0.02637,-1.87983 c 0.02457,-1.7517 0.367729,-2.17027 5.034398,-6.14079 3.850179,-3.27583 5.408693,-4.29692 6.741027,-4.41654 l 1.733001,-0.15558 v 14.06635 14.06634 h -1.503866 -1.503867 z m 0,-13.32628 v -3.04985 l -1.879833,1.50908 c -1.033908,0.83 -2.669363,2.19327 -3.634344,3.02949 l -1.754511,1.52039 3.634344,0.0204 3.634344,0.0204 z m 16.005701,12.69967 -0.03554,-8.39659 -4.440517,-3.75967 c -3.859039,-3.26734 -4.445171,-3.973 -4.476058,-5.38885 -0.01955,-0.89605 0.06292,-1.62919 0.183271,-1.62919 0.120346,0 2.094171,1.61639 4.386278,3.59197 l 4.167464,3.59197 0.146407,-3.84261 c 0.141258,-3.70735 0.189783,-3.84262 1.378544,-3.84262 h 1.232138 v 14.03609 14.03608 h -1.253222 -1.253222 z m 12.066474,-0.87726 c 0,-5.10061 -0.123994,-9.27384 -0.275539,-9.27384 -0.151544,0 -0.884679,0.30979 -1.629189,0.68843 -0.744509,0.37863 -1.861205,0.84499 -2.48155,1.03636 -0.971412,0.29965 -1.1279,0.16552 -1.1279,-0.96681 0,-1.10643 0.436834,-1.51472 2.757089,-2.57697 l 2.757089,-1.26224 v -3.22163 -3.22163 h 1.503866 c 1.473112,0 1.503867,0.052 1.503867,2.54023 0,2.4032 0.06084,2.52145 1.127899,2.19229 0.620345,-0.19136 1.737041,-0.65772 2.481551,-1.03636 1.829909,-0.93064 1.904727,-0.90089 1.904727,0.75722 0,1.28247 -0.31121,1.57196 -2.757089,2.56467 l -2.757088,1.11902 v 9.96755 9.96755 h -1.503867 -1.503866 z m 21.555419,1.50387 v -7.76998 h -5.263533 -5.263532 l 0.02637,-1.87983 c 0.02456,-1.7517 0.36773,-2.17027 5.034398,-6.14079 3.850179,-3.27583 5.408691,-4.29692 6.741027,-4.41654 l 1.733005,-0.15558 v 14.06635 14.06634 H 98.32607 96.822203 Z m 0,-13.32628 v -3.04985 l -1.879833,1.50908 c -1.033908,0.83 -2.669363,2.19327 -3.634344,3.02949 l -1.754511,1.52039 3.634344,0.0204 3.634344,0.0204 z m 12.030939,11.82241 c 0,-5.10061 -0.124,-9.27384 -0.27554,-9.27384 -0.15155,0 -0.88468,0.30979 -1.62919,0.68843 -0.74451,0.37863 -1.86121,0.84499 -2.48155,1.03636 -0.97141,0.29965 -1.1279,0.16552 -1.1279,-0.96681 0,-1.10643 0.43683,-1.51472 2.75709,-2.57697 l 2.75709,-1.26224 v -3.22163 -3.22163 h 1.50386 c 1.47312,0 1.50387,0.052 1.50387,2.54023 0,2.4032 0.0608,2.52145 1.1279,2.19229 0.62034,-0.19136 1.73704,-0.65772 2.48155,-1.03636 1.82991,-0.93064 1.90473,-0.90089 1.90473,0.75722 0,1.28247 -0.31121,1.57196 -2.75709,2.56467 l -2.75709,1.11902 v 9.96755 9.96755 h -1.50387 -1.50386 z m 11.15388,8.39659 c 0.13335,-0.48249 1.90155,-6.80929 3.92934,-14.05955 l 3.68688,-13.1823 1.49265,0.14879 1.49266,0.14879 3.63728,13.53479 c 2.0005,7.44414 3.64735,13.70399 3.65967,13.91077 0.0123,0.20678 -0.62848,0.37596 -1.42399,0.37596 -1.38834,0 -1.49342,-0.1705 -2.61875,-4.2489 -0.64481,-2.3369 -1.32079,-4.08514 -1.50219,-3.88499 -0.1814,0.20016 -0.84046,2.11216 -1.46458,4.24891 -1.07295,3.67336 -1.21271,3.88498 -2.56561,3.88498 -0.78696,0 -1.43085,-0.12802 -1.43085,-0.2845 0,-0.15647 0.92452,-3.34585 2.05449,-7.0875 l 2.05449,-6.803 -0.88051,-4.19579 c -0.48429,-2.30769 -0.95973,-4.11658 -1.05655,-4.01977 -0.17525,0.17526 -6.18223,21.70019 -6.18223,22.15291 0,0.13071 -0.70304,0.23765 -1.56233,0.23765 -1.24611,0 -1.51326,-0.17756 -1.31987,-0.87725 z m 20.42731,-13.15883 V 160.0089 h 1.50387 1.50387 v 6.05564 6.05564 l 4.99944,-4.67709 c 3.95794,-3.70275 5.00225,-4.96428 5.01289,-6.05564 0.0117,-1.19454 0.21418,-1.37855 1.51731,-1.37855 h 1.50387 v 14.03609 14.03608 h -1.4937 -1.49369 l -0.1355,-10.39092 -0.13549,-10.39093 -4.87325,4.50078 -4.87324,4.50079 -0.0143,5.89014 -0.0143,5.89014 h -1.50387 -1.50387 z m 20.05156,12.02018 c 0,-1.66383 0.21886,-2.11562 1.25322,-2.58691 1.53731,-0.70044 1.57048,-1.26097 0.16326,-2.75889 l -1.08996,-1.1602 1.21102,-1.28908 1.21102,-1.28907 1.41729,1.58621 c 1.35209,1.51325 1.46097,1.54666 2.36736,0.72639 0.52255,-0.47289 1.33005,-1.85472 1.79444,-3.07072 1.04469,-2.73549 0.44696,-5.27828 -1.73134,-7.36523 l -1.44669,-1.38601 -1.26323,1.50126 -1.26323,1.50126 -1.14832,-1.22233 -1.14832,-1.22233 1.11052,-1.18209 1.11053,-1.1821 -1.27379,-0.83461 c -0.95992,-0.62897 -1.27378,-1.26408 -1.27378,-2.57757 0,-2.07631 0.45613,-2.15158 2.909,-0.48006 l 1.85324,1.2629 1.29462,-1.58009 c 1.28169,-1.56431 1.30797,-1.57134 2.63177,-0.70396 0.73543,0.48188 1.33714,1.00703 1.33714,1.16702 0,0.15998 -0.60717,0.92463 -1.34927,1.69922 l -1.34927,1.40833 1.57451,1.62683 c 3.99283,4.12551 4.10291,9.31226 0.30335,14.29373 l -1.29094,1.69252 1.14636,1.22025 1.14637,1.22025 -1.44792,1.5113 -1.44792,1.5113 -1.17383,-1.49988 -1.17384,-1.49989 -2.05561,1.48908 c -1.13058,0.81899 -2.24735,1.48907 -2.48169,1.48907 -0.23434,0 -0.42607,-0.90715 -0.42607,-2.0159 z m 16.04124,0.28007 c 0,-1.5574 0.30439,-1.94253 2.96117,-3.74672 3.73596,-2.53705 4.92413,-4.05048 5.33595,-6.79671 0.61692,-4.11392 -1.47116,-7.68652 -6.30582,-10.78891 -2.18589,-1.40268 -2.49259,-1.80894 -2.49259,-3.30174 0,-0.93624 0.12007,-1.70226 0.26682,-1.70226 0.14674,0 1.82562,1.02695 3.73083,2.28211 6.22709,4.10243 8.31768,7.41456 7.90726,12.52752 -0.27735,3.45513 -1.16564,5.45389 -3.43032,7.71857 -1.50766,1.50765 -7.11015,5.54397 -7.69515,5.54397 -0.15298,0 -0.27815,-0.78112 -0.27815,-1.73583 z m 14.03609,-0.28007 c 0,-1.66383 0.21886,-2.11562 1.25322,-2.58691 1.53731,-0.70044 1.57048,-1.26097 0.16326,-2.75889 l -1.08996,-1.1602 1.21102,-1.28908 1.21102,-1.28907 1.41729,1.58621 c 1.35209,1.51325 1.46097,1.54666 2.36736,0.72639 0.52255,-0.47289 1.33005,-1.85472 1.79444,-3.07072 1.04469,-2.73549 0.44696,-5.27828 -1.73134,-7.36523 l -1.44669,-1.38601 -1.26323,1.50126 -1.26323,1.50126 -1.14832,-1.22233 -1.14832,-1.22233 1.11052,-1.18209 1.11053,-1.1821 -1.27379,-0.83461 c -0.95992,-0.62897 -1.27378,-1.26408 -1.27378,-2.57757 0,-2.07631 0.45613,-2.15158 2.909,-0.48006 l 1.85324,1.2629 1.29462,-1.58009 c 1.28169,-1.56431 1.30797,-1.57134 2.63176,-0.70396 0.73544,0.48188 1.33715,1.00703 1.33715,1.16702 0,0.15998 -0.60717,0.92463 -1.34927,1.69922 l -1.34927,1.40833 1.57451,1.62683 c 3.99283,4.12551 4.10291,9.31226 0.30335,14.29373 l -1.29094,1.69252 1.14636,1.22025 1.14637,1.22025 -1.44792,1.5113 -1.44792,1.5113 -1.17384,-1.49988 -1.17383,-1.49989 -2.05561,1.48908 c -1.13058,0.81899 -2.24735,1.48907 -2.48169,1.48907 -0.23434,0 -0.42607,-0.90715 -0.42607,-2.0159 z"
         style="fill:#ffffff;fill-opacity:1;stroke:none;stroke-width:0.67601913;stroke-miterlimit:4;stroke-dasharray:none;stroke-opacity:1" />
    </g>
    <g
       transform="matrix(0.73428861,0,0,0.6794908,-17.685628,-67.875695)"
       id="layer1-9"
       inkscape:label="1. réteg"
       style="fill:#ed1c24;fill-opacity:1;stroke:#ffffff;stroke-width:1.69885397;stroke-miterlimit:4;stroke-dasharray:none;stroke-opacity:1">
      <path
         inkscape:connector-curvature="0"
         id="path1390"
         d="m 111.81951,378.97208 c -1.13451,-0.53607 -1.34559,-0.76383 -1.90651,-2.05722 -0.72905,-1.68103 -1.1606,-1.98281 -2.83547,-1.98281 -1.44601,0 -2.02354,-0.49025 -2.06727,-1.75484 -0.0161,-0.46647 -0.10058,-1.18281 -0.18767,-1.59185 l -0.15833,-0.7437 -3.34495,-0.14939 c -1.839721,-0.0822 -3.645858,-0.23222 -4.013631,-0.33347 -0.925656,-0.25485 -1.458226,-1.17941 -1.705196,-2.96029 -0.34873,-2.51465 -0.644227,-3.44077 -1.055819,-3.30901 -0.274527,0.0879 -1.022126,1.1588 -2.396016,3.43224 -0.812723,1.34485 -1.53717,1.83203 -2.198203,1.47826 -0.272869,-0.14604 -1.21129,-0.26552 -2.085371,-0.26552 -1.782864,0 -2.233683,0.29866 -2.525856,1.67335 -0.184625,0.86867 -0.153913,0.85753 -2.486918,0.90156 -1.262472,0.0238 -1.722907,0.17209 -3.044605,0.98039 -1.508216,0.92237 -2.526977,1.24411 -2.94882,0.93129 -0.112278,-0.0833 -0.441011,-0.59244 -0.73052,-1.13151 -0.289508,-0.53907 -0.761725,-1.13639 -1.049369,-1.32738 -0.480076,-0.31876 -0.557263,-0.28754 -0.940647,0.38047 -0.495895,0.86405 -1.936903,1.8676 -2.52238,1.75665 -0.242223,-0.0459 -0.447749,-0.36169 -0.493524,-0.75828 -0.04314,-0.37379 -0.210477,-0.68982 -0.371854,-0.70229 -0.161378,-0.0125 -0.723323,-0.0439 -1.248771,-0.0698 -0.947468,-0.0467 -1.64762,-0.60698 -1.64762,-1.31835 0,-0.38009 -0.891083,-0.43978 -1.116653,-0.0748 -0.08486,0.13732 -0.493279,0.42497 -0.907587,0.63922 -0.708252,0.36624 -0.785717,0.35906 -1.295853,-0.12019 -0.451625,-0.42428 -0.748652,-0.48549 -1.771999,-0.36519 -1.445748,0.16994 -3.748678,-0.40547 -5.09584,-1.27326 -0.733589,-0.47255 -0.987877,-0.87469 -1.434997,-2.26933 -0.298878,-0.93225 -0.511225,-1.97073 -0.471883,-2.30772 0.05911,-0.50633 -0.07911,-0.66206 -0.796126,-0.89697 -1.27631,-0.41816 -1.905078,-1.87973 -1.138454,-2.64636 0.316495,-0.31649 1.599413,-2.30861 2.276522,-3.53498 0.487278,-0.88256 3.119613,-2.50718 8.378538,-5.17109 2.845856,-1.44157 5.777282,-3.0763 6.514279,-3.63274 0.736998,-0.55644 2.029937,-1.338 2.873193,-1.7368 0.856069,-0.40486 2.165979,-1.33607 2.965984,-2.10851 1.375343,-1.32796 1.432787,-1.43388 1.432787,-2.64214 0,-1.43477 -0.827348,-4.46181 -1.334541,-4.88274 -0.268342,-0.22271 -0.712281,0.0845 -2.128495,1.47288 -1.435138,1.40695 -1.918694,1.7392 -2.442284,1.67809 -0.520784,-0.0608 -0.73652,-0.30186 -1.066453,-1.19176 -0.456428,-1.23107 -0.458288,-1.23159 -3.088572,-0.86981 -1.162917,0.15995 -1.365463,0.10569 -2.633676,-0.70558 -0.755633,-0.48337 -1.439482,-1.04983 -1.519668,-1.25879 -0.104437,-0.27216 -0.350852,-0.33892 -0.868651,-0.23536 -0.984469,0.19689 -1.6791,-0.23127 -1.862441,-1.14797 -0.127057,-0.63529 -0.394443,-0.87692 -1.582139,-1.42978 -1.20606,-0.56139 -1.874425,-0.68533 -4.280124,-0.79371 -3.230638,-0.14553 -3.848588,-0.42721 -4.965324,-2.26342 -0.391251,-0.64331 -1.029176,-1.22025 -1.766087,-1.59724 -0.730606,-0.37375 -1.975953,-1.49523 -3.396326,-3.05851 -1.886732,-2.07656 -2.309022,-2.69758 -2.660414,-3.91242 -0.229732,-0.79424 -0.918048,-2.6154 -1.529594,-4.04704 -0.611544,-1.43164 -1.168599,-3.01878 -1.2379,-3.527 -0.109501,-0.80302 -0.02444,-1.01313 0.649597,-1.60459 1.165821,-1.023 1.027175,-1.61106 -0.797334,-3.38185 -1.263132,-1.22594 -1.849045,-2.07989 -2.974832,-4.33574 -0.771047,-1.54502 -1.401903,-3.04312 -1.401903,-3.3291 0,-0.28599 -0.250282,-1.29707 -0.556184,-2.24687 -0.546856,-1.69793 -0.54814,-1.73148 -0.07655,-2.0008 0.791662,-0.45211 1.667081,-1.38521 1.570738,-1.67423 -0.04962,-0.14888 -0.584237,-0.54816 -1.188029,-0.88731 -0.603791,-0.33914 -1.23725,-0.79983 -1.407685,-1.02377 -0.558825,-0.73422 -0.64485,-1.905 -0.202784,-2.75986 0.291724,-0.56413 0.400508,-1.32574 0.367247,-2.57111 -0.02599,-0.97325 -0.03531,-1.89133 -0.02073,-2.04018 0.0146,-0.14886 0.472768,-0.40434 1.018154,-0.56774 0.866615,-0.25964 0.991611,-0.38958 0.991611,-1.03085 1e-5,-0.40356 -0.111547,-0.73376 -0.247893,-0.73376 -0.136346,0 -0.247903,-0.22311 -0.247903,-0.49581 0,-0.38155 0.16527,-0.4958 0.717185,-0.4958 0.816465,0 1.000042,-0.29962 0.841028,-1.37264 -0.07501,-0.50618 -0.389208,-0.94312 -0.958844,-1.33345 -0.465999,-0.3193 -0.847271,-0.73351 -0.847271,-0.92045 0,-0.18695 -0.223113,-0.56301 -0.495806,-0.83571 -0.635885,-0.63588 -0.627793,-1.25276 0.02736,-2.08564 0.518126,-0.65869 0.518942,-0.68135 0.08474,-2.35544 -0.527616,-2.03425 -0.405189,-2.48731 0.685808,-2.53795 0.447405,-0.0207 0.925019,-0.0637 1.061366,-0.0954 0.136346,-0.0317 0.379831,-0.0705 0.541075,-0.0862 0.828438,-0.0808 0.565936,-1.65387 -0.45982,-2.75552 -0.819316,-0.87994 -1.547743,-2.34879 -1.380692,-2.78412 0.29996,-0.78169 1.130235,-0.6501 2.794287,0.44285 1.291251,0.8481 1.774443,1.34658 2.270789,2.34261 0.578054,1.16 0.695134,1.25898 1.407267,1.18974 0.690014,-0.0671 0.770912,-0.15627 0.72442,-0.79864 -0.02878,-0.39772 -0.154701,-0.78816 -0.27981,-0.86766 -0.324517,-0.2062 -1.775025,-3.69694 -1.775025,-4.27171 0,-0.26437 0.276516,-0.77888 0.614476,-1.14335 l 0.614477,-0.66269 0.853556,0.8273 c 0.469453,0.45501 0.920192,1.09281 1.00164,1.41732 0.323905,1.29054 1.938297,3.83311 2.676058,4.21462 l 0.748361,0.38699 -0.175158,-1.20022 c -0.09634,-0.66012 -0.436061,-1.98111 -0.754946,-2.93553 -0.318884,-0.95443 -0.656473,-2.12577 -0.7502,-2.60298 -0.09372,-0.47721 -0.309413,-1.20233 -0.479303,-1.61137 -0.925936,-2.22934 -1.348814,-5.07912 -1.013391,-6.82929 0.210102,-1.09626 0.360027,-1.36589 0.793879,-1.42771 0.682748,-0.0973 1.414307,0.68484 1.885106,2.01541 0.950697,2.68685 1.918331,5.91202 1.918331,6.39388 0,0.88933 1.181362,5.11242 1.482145,5.29831 0.108227,0.0669 0.445034,0.82484 0.748462,1.68433 0.567641,1.60791 1.1366,2.59539 1.364239,2.36775 0.145476,-0.14548 0.145139,-0.40582 -0.0081,-6.27995 -0.07757,-2.97282 -10e-4,-4.94465 0.259586,-6.69337 0.20325,-1.36346 0.428136,-2.86947 0.499742,-3.34668 0.248815,-1.65821 0.354357,-1.89423 1.00209,-2.24088 0.580786,-0.31083 0.68609,-0.30111 0.971831,0.0897 0.28391,0.38827 0.399926,0.89173 0.781366,3.39073 0.05203,0.34087 0.156375,2.96243 0.231881,5.82571 0.136723,5.18474 0.584745,9.58188 1.114508,10.9384 0.153154,0.39216 0.333975,1.04641 0.401819,1.45387 0.324762,1.95042 1.378645,2.68176 2.15565,1.4959 0.338282,-0.51628 0.383225,-1.15385 0.28207,-4.00156 -0.06618,-1.86309 -0.01088,-4.34775 0.122901,-5.52146 0.133776,-1.17371 0.307359,-2.69181 0.385746,-3.37354 0.07839,-0.68173 0.207758,-1.40685 0.287488,-1.61137 0.07973,-0.20452 0.154602,-0.47136 0.166377,-0.593 0.01178,-0.12163 0.33216,-0.45315 0.711962,-0.73672 l 0.69055,-0.51557 0.6002,0.73672 c 0.584309,0.71722 0.600903,0.85813 0.626933,5.32292 0.03042,5.21792 0.07185,5.8937 0.596933,9.7352 0.209281,1.53114 0.371053,4.06974 0.359488,5.64132 -0.0218,2.96208 0.452169,6.68682 0.850884,6.68682 0.125654,0 0.175792,0.27551 0.111419,0.61226 -0.06437,0.33674 -0.02159,0.55327 0.09505,0.48117 0.116651,-0.0721 0.21209,-0.006 0.21209,0.14609 0,0.15244 0.08965,0.22175 0.199228,0.15403 0.109575,-0.0677 0.580479,0.51136 1.046451,1.28686 l 0.847225,1.40998 0.178775,-0.9916 c 0.09833,-0.54539 0.185203,-1.35417 0.193062,-1.7973 0.01185,-0.66854 0.109236,-0.8043 0.572067,-0.79755 1.248416,0.0182 3.296704,3.40884 3.928175,6.50252 0.377689,1.85038 1.86536,6.23188 2.736344,8.05912 0.598776,1.25618 1.119238,1.86769 2.709098,3.18301 1.082362,0.89546 1.967932,1.72005 1.967932,1.83242 0,0.30578 2.952346,2.58613 4.101921,3.16827 0.551726,0.27939 1.444179,0.58151 1.983215,0.67138 1.708432,0.28483 2.297257,0.63929 3.326386,2.00235 1.276723,1.69102 1.957014,2.31614 3.653595,3.35735 0.752634,0.4619 2.049589,1.42302 2.882127,2.13583 1.608089,1.37684 2.619612,1.87726 3.141996,1.5544 0.258331,-0.15965 0.24133,-0.51063 -0.08831,-1.82292 -0.686583,-2.73332 -0.537532,-3.70262 0.883039,-5.7425 0.662599,-0.95144 1.421709,-3.65734 1.431349,-5.10214 0.009,-1.38547 0.50223,-2.16001 1.86397,-2.92853 0.7282,-0.41096 1.37884,-0.94645 1.44584,-1.18995 0.067,-0.24351 0.25434,-1.02875 0.4163,-1.74499 0.16195,-0.71624 0.3948,-1.36427 0.51745,-1.44007 0.30446,-0.18816 0.27979,-1.16717 -0.0724,-2.87214 -0.23808,-1.15269 -0.23165,-1.54899 0.0332,-2.04377 0.4009,-0.74909 1.54804,-1.26157 2.30569,-1.03007 0.30772,0.094 0.92738,0.22202 1.37702,0.28441 l 0.81753,0.11345 -0.16882,-2.45113 c -0.18655,-2.70854 -0.15044,-2.78883 1.31325,-2.92017 1.10571,-0.0992 2.4565,-0.57205 3.56843,-1.24909 0.93652,-0.57023 1.20419,-1.30742 1.21039,-3.33356 0.003,-1.11718 0.55086,-1.63499 1.96816,-1.86163 1.19414,-0.19095 2.00101,-0.82573 2.00101,-1.57422 0,-0.52879 0.98339,-0.82002 2.35508,-0.69745 0.63831,0.0571 0.80691,-0.0629 1.18975,-0.84602 0.42972,-0.87907 0.47511,-0.90275 1.23952,-0.64663 0.96053,0.32183 1.66112,0.89472 1.66112,1.35835 0,0.26988 0.10908,0.28378 0.51638,0.0658 0.49435,-0.26457 0.50895,-0.40068 0.34239,-3.19128 -0.20806,-3.48593 -0.0921,-4.03103 0.83318,-3.91751 0.52093,0.0639 0.79602,0.3555 1.28288,1.35976 1.08211,2.2321 1.15683,2.14021 1.30157,-1.60067 0.14378,-3.71611 0.24135,-4.18257 0.91149,-4.35782 0.63206,-0.16529 1.17709,0.20845 1.35858,0.9316 0.086,0.34261 0.26291,0.62292 0.39316,0.62292 0.41268,0 0.97809,1.39522 1.14666,2.82953 0.0895,0.76165 0.23243,1.38482 0.31757,1.38482 0.0851,0 0.48792,-0.96099 0.89506,-2.13552 0.90616,-2.61413 1.86815,-3.6377 3.30618,-3.5178 0.85301,0.0711 0.91009,0.1299 0.98296,1.01224 0.0794,0.96138 -0.57056,4.41365 -1.4105,7.49196 -0.49564,1.81644 -1.41842,3.94461 -2.25735,5.20595 -0.27205,0.40905 -0.63083,1.0226 -0.79729,1.36347 -0.16644,0.34086 -0.5023,0.8858 -0.74633,1.21097 -0.58791,0.78336 -0.56464,1.6817 0.0521,2.01177 1.33302,0.7134 -0.12941,3.50314 -2.60297,4.96543 -0.54539,0.32242 -1.04739,0.66077 -1.11557,0.75192 -0.0682,0.0911 -0.57017,0.40498 -1.11555,0.69741 -0.54539,0.29244 -1.21472,0.65969 -1.48742,0.81611 -0.27269,0.15642 -0.61856,0.35047 -0.7686,0.43123 -1.27837,0.68809 -2.47082,1.73036 -3.4842,3.0454 -1.87704,2.43577 -2.1358,2.87464 -3.401,5.76818 -1.16282,2.65935 -1.18806,2.77065 -1.18806,5.23823 0,2.33739 -0.0627,2.66336 -0.86053,4.4721 -1.32762,3.0099 -2.07299,5.05256 -2.07299,5.681 0,0.67639 0.90475,1.45154 2.18464,1.87173 2.54875,0.83675 4.61066,2.54134 6.5139,5.38508 l 1.27435,1.90407 -0.18896,1.61136 c -0.19303,1.64628 -0.20393,2.90724 -0.0687,7.94924 0.0744,2.77415 0.0548,2.90075 -0.60528,3.89986 -0.86652,1.31163 -1.80468,1.61116 -2.47059,0.78881 -0.25637,-0.31662 -0.44832,-0.80754 -0.42654,-1.09095 0.0218,-0.28341 0.0273,-0.69801 0.0122,-0.92133 -0.0322,-0.47569 -3.51305,-4.18016 -3.92789,-4.18016 -0.15521,0 -1.19945,0.35904 -2.32055,0.79787 -3.61102,1.41346 -5.7238,3.9613 -5.32953,6.42696 0.2469,1.544 0.7191,2.1548 3.08418,3.98941 1.89391,1.46912 3.31955,2.79226 3.00857,2.79226 -0.18068,0 0.77526,4.92587 1.07903,5.56016 0.1586,0.33116 0.62302,0.69593 1.03206,0.8106 0.40904,0.11468 3.05987,0.2046 5.89072,0.19985 5.62269,-0.009 5.5904,-0.0164 7.3101,1.57951 1.0221,0.94853 1.0381,1.72187 0.0777,3.75463 -1.17039,2.47716 -1.89602,2.23245 -1.77094,-0.59723 0.0571,-1.29097 0.0397,-1.33002 -0.5183,-1.17083 -0.31752,0.0906 -1.33201,0.23376 -2.25439,0.31819 l -1.67708,0.15352 0.1508,1.14127 c 0.13461,1.01876 0.0685,1.24472 -0.61603,2.10499 -0.42175,0.53005 -0.76683,0.87895 -0.76683,0.77533 0,-0.10361 -0.1783,-0.0404 -0.39622,0.14045 -0.34638,0.28747 -0.38734,0.2523 -0.32561,-0.27953 0.1072,-0.92364 -0.24865,-1.77507 -1.05723,-2.52961 -0.81691,-0.7623 -1.36708,-0.84966 -2.07802,-0.32996 -0.41129,0.30066 -0.48121,0.65925 -0.48121,2.4679 0,2.71622 0.23333,2.95797 2.68471,2.78156 1.5659,-0.11268 1.66834,-0.0902 1.36347,0.29923 -0.5061,0.64647 -0.99964,1.01654 -1.86447,1.39805 -1.08943,0.4806 -2.24185,0.0935 -3.66375,-1.23062 -1.5415,-1.43551 -1.83171,-2.21464 -1.52215,-4.08647 0.31173,-1.88487 0.15163,-2.05423 -2.32772,-2.46235 -2.7957,-0.46018 -4.66344,-0.97493 -5.25769,-1.44899 -0.29311,-0.23384 -1.26595,-1.12711 -2.16185,-1.98507 -1.50765,-1.4438 -1.70272,-1.55452 -2.62051,-1.48741 -0.91489,0.0669 -0.99752,0.13349 -1.068,0.8608 -0.0687,0.70905 1.14714,4.18806 1.7266,4.94047 0.46156,0.59932 0.93137,2.75159 0.977,4.47586 0.0288,1.08772 0.17146,1.92035 0.35515,2.0728 0.31934,0.26503 2.16016,0.83137 4.08286,1.25613 0.61356,0.13555 1.85934,0.24698 2.76841,0.24763 1.74598,0.001 2.03901,0.15858 2.3106,1.2407 0.12041,0.47971 0.39005,0.69744 1.07288,0.86627 0.81953,0.20263 0.97161,0.37578 1.49904,1.70667 0.32284,0.81464 0.64323,2.10145 0.71197,2.85957 0.11849,1.30675 0.0905,1.39412 -0.53786,1.68044 -0.36458,0.16611 -1.15066,0.36057 -1.74687,0.43214 l -1.08402,0.13013 0.2447,-0.88623 c 0.13458,-0.48742 0.21013,-1.23863 0.16788,-1.66933 -0.0743,-0.75756 -0.11726,-0.7845 -1.31634,-0.82574 -0.68173,-0.0234 -1.82518,-0.21762 -2.541,-0.43149 -0.71582,-0.21387 -1.30149,-0.30318 -1.30149,-0.19847 0,0.4089 0.84506,2.66661 1.21778,3.25353 0.21648,0.34087 0.72523,0.92654 1.13057,1.30149 0.40533,0.37495 0.68423,0.68886 0.61976,0.69756 -1.19494,0.16132 -1.81144,0.0676 -2.88155,-0.43804 z"
         style="fill:#ed1c24;fill-opacity:1;stroke:#ffffff;stroke-width:1.69885397;stroke-miterlimit:4;stroke-dasharray:none;stroke-opacity:1" />
    </g>
    <text
       xml:space="preserve"
       style="font-style:normal;font-variant:normal;font-weight:normal;font-stretch:normal;font-size:41.46721268px;line-height:1.25;font-family:'ROG Fonts';-inkscape-font-specification:'ROG Fonts';letter-spacing:0px;word-spacing:0px;fill:#ed1c24;fill-opacity:1;stroke:#fafafa;stroke-width:1.20000005;stroke-miterlimit:4;stroke-dasharray:none;stroke-opacity:1"
       x="106.11654"
       y="143.41951"
       id="text2536"
       transform="scale(0.97741506,1.0231068)"><tspan
         sodipodi:role="line"
         id="tspan2534"
         x="106.11654"
         y="143.41951"
         style="font-style:normal;font-variant:normal;font-weight:normal;font-stretch:normal;font-size:41.46721268px;font-family:'ROG Fonts';-inkscape-font-specification:'ROG Fonts';fill:#ed1c24;fill-opacity:1;stroke:#fafafa;stroke-width:1.20000005;stroke-miterlimit:4;stroke-dasharray:none;stroke-opacity:1">TURUL</tspan></text>
    <path
       id="path4569-4"
       style="fill:#ffffff;fill-opacity:1;fill-rule:evenodd;stroke-width:0.32653779"
       d="m 265.05481,116.0093 a 2.2857646,2.2857646 0 1 1 -2.28576,2.28577 2.2857646,2.2857646 0 0 1 2.28576,-2.28577 z m 0,-0.5845 a 2.8637366,2.8637366 0 1 1 -2.86373,2.86374 2.8702674,2.8702674 0 0 1 2.86373,-2.86374 z"
       inkscape:connector-curvature="0" />
    <path
       id="path4571-3"
       style="fill:#ffffff;fill-opacity:1;fill-rule:evenodd;stroke-width:0.32653779"
       d="m 263.54621,116.59054 h 1.65881 c 0.88491,0 1.33227,0.32654 1.33227,0.97961 a 0.8947136,0.8947136 0 0 1 -0.59104,0.92084 l 0.61063,1.48575 h -1.11676 l -0.50612,-1.28657 h -0.35594 v 1.29963 h -1.03185 z m 1.03185,0.72492 v 0.65306 h 0.49635 c 0.25469,0 0.41143,-0.14693 0.41143,-0.32653 0,-0.17959 -0.14041,-0.32653 -0.4245,-0.32653 z"
       inkscape:connector-curvature="0" />
  </g>
</svg>
