<?xml version="1.0" encoding="UTF-8" standalone="no"?>
<!-- Created with Inkscape (http://www.inkscape.org/) -->

<svg
   xmlns:dc="http://purl.org/dc/elements/1.1/"
   xmlns:cc="http://creativecommons.org/ns#"
   xmlns:rdf="http://www.w3.org/1999/02/22-rdf-syntax-ns#"
   xmlns:svg="http://www.w3.org/2000/svg"
   xmlns="http://www.w3.org/2000/svg"
   xmlns:sodipodi="http://sodipodi.sourceforge.net/DTD/sodipodi-0.dtd"
   xmlns:inkscape="http://www.inkscape.org/namespaces/inkscape"
   width="63.690807mm"
   height="62.431965mm"
   viewBox="0 0 63.690807 62.431965"
   version="1.1"
   id="svg8"
   inkscape:version="0.92.3 (2405546, 2018-03-11)"
   sodipodi:docname="x_svg.svg">
  <defs
     id="defs2" />
  <sodipodi:namedview
     id="base"
     pagecolor="#ffffff"
     bordercolor="#666666"
     borderopacity="1.0"
     inkscape:pageopacity="0.0"
     inkscape:pageshadow="2"
     inkscape:zoom="0.98994949"
     inkscape:cx="35.899416"
     inkscape:cy="86.208737"
     inkscape:document-units="mm"
     inkscape:current-layer="layer1"
     showgrid="false"
     fit-margin-top="1"
     fit-margin-left="1"
     fit-margin-bottom="1"
     fit-margin-right="1"
     inkscape:window-width="1366"
     inkscape:window-height="705"
     inkscape:window-x="-8"
     inkscape:window-y="-8"
     inkscape:window-maximized="1"
     inkscape:pagecheckerboard="true" />
  <metadata
     id="metadata5">
    <rdf:RDF>
      <cc:Work
         rdf:about="">
        <dc:format>image/svg+xml</dc:format>
        <dc:type
           rdf:resource="http://purl.org/dc/dcmitype/StillImage" />
        <dc:title></dc:title>
      </cc:Work>
    </rdf:RDF>
  </metadata>
  <g
     inkscape:label="1. réteg"
     inkscape:groupmode="layer"
     id="layer1"
     transform="translate(-7.4406271,-5.5437101)">
    <path
       style="fill:#ffffff;stroke-width:0.42611644;fill-opacity:1;stroke:none"
       d="m 33.164971,66.460774 c -4.40225,-0.966138 -7.22333,-2.112341 -10.71804,-4.354736 -11.99558,-7.697012 -16.9757005,-22.160421 -12.22531,-35.5051 1.38936,-3.902928 3.36718,-7.06885 6.44091,-10.310038 9.8321,-10.3677237 25.27739,-12.7265147 38.06385,-5.813074 4.51337,2.440314 9.89833,7.953209 12.14828,12.436904 2.66026,5.301379 3.297,8.098982 3.25485,14.300634 -0.0301,4.433335 -0.20757,5.774554 -1.12365,8.493658 -1.73687,5.155416 -3.93333,8.583086 -8.05669,12.572795 -4.04717,3.915991 -7.53216,5.980259 -12.7614,7.558968 -4.03373,1.217781 -10.99068,1.504895 -15.0228,0.619989 z m 11.87598,-4.434119 c 9.1273,-1.834248 17.46999,-9.737459 19.96666,-18.914862 1.53675,-5.648897 0.54444,-13.020317 -2.52302,-18.742219 -1.89676,-3.538136 -7.03827,-8.45815 -10.89233,-10.423096 -9.66974,-4.9299897 -21.76227,-3.425857 -29.83499,3.711036 -9.00648,7.96241 -11.32837,21.334377 -5.48145,31.568201 3.54968,6.212966 9.49464,10.717248 16.60728,12.582726 2.83867,0.744517 8.9896,0.854915 12.15785,0.218214 z m -18.77335,-12.52513 c -0.39242,-0.42362 -0.71349,-1.117449 -0.71349,-1.541844 0,-0.424392 2.36659,-3.110244 5.2591,-5.968559 l 5.2591,-5.196931 -5.2591,-5.196931 c -3.20874,-3.170813 -5.2591,-5.526297 -5.2591,-6.041742 0,-1.036718 1.28806,-2.238878 2.39886,-2.238878 0.47578,0 3.04934,2.170682 6.10948,5.153053 l 5.28741,5.153058 5.28742,-5.153058 c 3.36926,-3.283649 5.61281,-5.153053 6.18438,-5.153053 1.08897,0 2.32396,1.245397 2.32396,2.343536 0,0.464802 -2.22193,2.979006 -5.27472,5.968558 l -5.27472,5.165457 5.27472,5.165457 c 3.36118,3.291554 5.27472,5.48335 5.27472,6.041737 0,1.063851 -1.2748,2.270357 -2.39887,2.270357 -0.47577,0 -3.04934,-2.170682 -6.10947,-5.153053 l -5.28742,-5.153058 -5.28741,5.153058 c -5.45201,5.313465 -6.42563,5.860906 -7.79485,4.382836 z"
       id="path21"
       inkscape:connector-curvature="0"
       sodipodi:nodetypes="ssczscccsssscssscsscsscssscccssscsssscsc" />
  </g>
</svg>
